<?xml version="1.0" standalone="no"?><!DOCTYPE svg PUBLIC "-//W3C//DTD SVG 1.1//EN" "http://www.w3.org/Graphics/SVG/1.1/DTD/svg11.dtd"><svg t="1646539282224" class="icon" viewBox="0 0 1024 1024" version="1.1" xmlns="http://www.w3.org/2000/svg" p-id="3697" xmlns:xlink="http://www.w3.org/1999/xlink" width="100" height="100"><defs><style type="text/css"></style></defs><path d="M236.002113 398.915897c0-51.11072-4.088858-102.22144 0-151.287731C248.268686 100.429293 370.934413-5.881004 520.177715 0.252283 661.243302 6.385569 775.731314 124.962439 777.775743 270.116883v130.843443c10.222144 0 20.444288 2.044429 28.622003 2.044428 83.82158 2.044429 149.243302 69.510579 149.243302 153.33216v306.664319c0 87.910438-67.46615 157.421017-157.421017 159.465445-190.131878 2.044429-380.263755 2.044429-572.440062 0-89.954867 0-157.421017-71.555008-157.421017-161.509874 0-91.999296 4.088858-183.998591-2.044429-273.953458-4.088858-96.088153 49.066291-179.909734 169.68759-188.087449zM512 952.956099h257.598028c75.643865 0 118.57687-42.933005 118.57687-118.576869V591.092203c0-79.732723-40.888576-120.621299-120.621299-122.665727h-511.107198c-77.688294 0-118.57687 42.933005-120.621299 118.57687v247.375884c0 71.555008 44.977433 114.488012 116.532441 114.488012 87.910438 4.088858 173.776447 4.088858 259.642457 4.088857z m-212.620594-551.995773h412.974616v-126.754585c0-104.265868-77.688294-190.131878-179.909734-202.398451-104.265868-12.266573-204.442879 55.199577-222.842738 157.421017-12.266573 55.199577-8.177715 112.443584-10.222144 171.732019z m0 0" p-id="3698"></path><path d="M352.534554 666.736069c14.311002-14.311002 36.799718-14.311002 51.11072 0l96.088153 96.088153c14.311002 14.311002 14.311002 36.799718 0 51.11072s-36.799718 14.311002-51.11072 0l-96.088153-96.088154c-14.311002-14.311002-14.311002-36.799718 0-51.110719z m0 0" p-id="3699"></path><path d="M671.465446 591.092203c14.311002 14.311002 14.311002 36.799718 0 51.11072l-171.732019 171.732019c-14.311002 14.311002-36.799718 14.311002-51.11072 0s-14.311002-36.799718 0-51.11072l171.732019-171.732019c14.311002-12.266573 36.799718-12.266573 51.11072 0z m0 0" p-id="3700"></path></svg>