<?xml version="1.0" standalone="no"?><!DOCTYPE svg PUBLIC "-//W3C//DTD SVG 1.1//EN" "http://www.w3.org/Graphics/SVG/1.1/DTD/svg11.dtd"><svg t="1614934737676" class="icon" viewBox="0 0 1024 1024" version="1.1" xmlns="http://www.w3.org/2000/svg" p-id="2161" xmlns:xlink="http://www.w3.org/1999/xlink" width="200" height="200"><defs><style type="text/css"></style></defs><path d="M885.4528 862.6176c0 32.6656-26.760533 58.9824-59.733333 58.9824H79.0528l104.5504-486.6048c0-32.529067 26.624-58.9824 59.5968-58.9824h687.035733c32.9728 0 59.630933 26.453333 59.630934 58.9824l-104.413867 427.6224zM198.519467 331.776H870.4V273.851733a59.392 59.392 0 0 0-59.733333-58.9824H452.334933V161.3824A59.392 59.392 0 0 0 392.6016 102.4H93.866667A59.392 59.392 0 0 0 34.133333 161.3824v701.2352l104.413867-471.8592c0-32.4608 26.760533-58.811733 59.904-58.9824h0.068267z" p-id="2162"></path></svg>