<?xml version="1.0" standalone="no"?><!DOCTYPE svg PUBLIC "-//W3C//DTD SVG 1.1//EN" "http://www.w3.org/Graphics/SVG/1.1/DTD/svg11.dtd"><svg t="1614495557312" class="icon" viewBox="0 0 1024 1024" version="1.1" xmlns="http://www.w3.org/2000/svg" p-id="12227" xmlns:xlink="http://www.w3.org/1999/xlink" width="200" height="200"><defs><style type="text/css"></style></defs><path d="M507.6992 564.224c-9.216 0-18.0224-2.8672-25.3952-8.6016L120.832 362.0864c-2.4576-1.2288-4.5056-2.8672-6.5536-4.7104-16.1792-15.9744-15.9744-41.984 0.4096-58.1632 2.048-2.048 4.5056-3.8912 7.168-5.12l368.2304-183.0912c7.3728-5.5296 16.384-8.6016 25.6-8.6016 9.0112 0 17.408 2.8672 24.576 7.9872l361.2672 169.3696c2.8672 1.4336 5.5296 3.2768 7.7824 5.5296 7.7824 7.7824 12.288 18.432 12.0832 29.4912-0.2048 10.8544-4.7104 21.0944-12.4928 28.672-1.8432 1.8432-3.6864 3.2768-5.9392 4.5056L533.9136 555.2128c-7.3728 5.9392-16.7936 9.0112-26.2144 9.0112z" p-id="12228"></path><path d="M505.2416 683.2128c-9.216 0-18.0224-2.8672-25.1904-8.3968L118.3744 481.0752c-13.7216-7.3728-18.6368-24.1664-11.264-37.6832 7.3728-13.5168 24.576-18.432 38.0928-11.0592l359.8336 192.7168 367.8208-206.4384c13.5168-7.5776 30.72-2.8672 38.2976 10.4448 7.7824 13.312 3.072 30.3104-10.4448 37.888L531.456 673.9968c-7.5776 5.9392-16.7936 9.216-26.2144 9.216z" p-id="12229"></path><path d="M505.2416 802.4064c-9.216 0-18.0224-2.8672-25.1904-8.3968L118.3744 600.2688c-6.5536-3.4816-11.4688-9.4208-13.5168-16.384-2.048-7.168-1.2288-14.7456 2.2528-21.0944 7.5776-13.5168 24.576-18.432 38.0928-11.0592l359.8336 192.7168 367.8208-206.4384c13.5168-7.5776 30.72-2.8672 38.2976 10.4448 7.7824 13.312 3.072 30.3104-10.4448 37.888l-369.2544 206.848c-7.5776 5.9392-16.7936 9.216-26.2144 9.216z" p-id="12230"></path><path d="M505.2416 921.6c-9.216 0-18.0224-2.8672-25.1904-8.3968L118.3744 719.4624c-6.5536-3.4816-11.4688-9.4208-13.5168-16.384-2.048-7.168-1.2288-14.7456 2.2528-21.0944 7.5776-13.5168 24.576-18.432 38.0928-11.0592l359.8336 192.7168 367.8208-206.4384c13.5168-7.5776 30.72-2.8672 38.2976 10.4448 7.7824 13.312 3.072 30.3104-10.4448 37.888l-369.2544 206.848c-7.5776 5.9392-16.7936 9.216-26.2144 9.216z" p-id="12231"></path></svg>