<?xml version="1.0" standalone="no"?><!DOCTYPE svg PUBLIC "-//W3C//DTD SVG 1.1//EN" "http://www.w3.org/Graphics/SVG/1.1/DTD/svg11.dtd"><svg t="1614495306183" class="icon" viewBox="0 0 1024 1024" version="1.1" xmlns="http://www.w3.org/2000/svg" p-id="9244" xmlns:xlink="http://www.w3.org/1999/xlink" width="200" height="200"><defs><style type="text/css"></style></defs><path d="M915.2 0H108.8C51.2 0 4.8 44.8 4.8 99.2v646.4c0 54.4 46.4 99.2 104 99.2h366.4v108.8H228.8c-20.8 0-36.8 16-36.8 35.2s16 35.2 36.8 35.2h566.4c20.8 0 36.8-16 36.8-35.2s-16-35.2-36.8-35.2H548.8v-108.8h366.4c56 0 104-44.8 104-97.6V99.2c0-54.4-46.4-99.2-104-99.2zM944 747.2c0 16-12.8 27.2-28.8 27.2H108.8c-16 0-28.8-12.8-28.8-27.2V99.2c0-16 12.8-27.2 28.8-27.2h806.4c16 0 28.8 12.8 28.8 27.2v648z" p-id="9245"></path><path d="M811.2 408C755.2 296 640 224 512 220.8c-129.6 3.2-244.8 75.2-299.2 187.2-3.2 3.2-1.6 6.4 0 9.6 56 113.6 169.6 184 299.2 187.2 129.6-3.2 244.8-75.2 299.2-187.2 3.2-1.6 3.2-6.4 0-9.6z m-65.6 4.8c-36.8 52.8-128 129.6-233.6 132.8-102.4-3.2-196.8-68.8-233.6-132.8 32-54.4 123.2-129.6 233.6-131.2 102.4 1.6 196.8 76.8 233.6 131.2z" p-id="9246"></path><path d="M582.4 366.4c0 1.6 1.6 3.2 1.6 4.8 0 14.4-12.8 27.2-27.2 27.2s-28.8-12.8-28.8-27.2 12.8-27.2 27.2-27.2c1.6 0 3.2 0 6.4 1.6-14.4-9.6-30.4-16-49.6-16-48 0-86.4 36.8-86.4 83.2S464 496 512 496s86.4-36.8 86.4-83.2c0-17.6-6.4-33.6-16-46.4z" p-id="9247"></path></svg>